<svg xmlns:xlink="http://www.w3.org/1999/xlink" xmlns="http://www.w3.org/2000/svg" class="h-auto md:w-12 opacity-90 w-12" data-name="Group 17" id="Group_17" viewBox="0 0 249.509 249.51" width="249.509"  height="249.51" ><path d="M58.56,9.46c7.046.315,15.415-1.037,25.3-2.793a91.759,91.759,0,0,1,18.58-1.712,118.959,118.959,0,0,1,18.489,2.117c9.221,1.623,17.07,2.795,23.783,2.3,6.242-.4,11.537-2.252,16.125-6.532L163.905,0l2.46,3.425,29.408,41.091,1.891,2.659-2.08,2.432c-10.4,12.3-9.315,17.032-6.949,27.35A138.056,138.056,0,0,1,192.37,102.1a75.386,75.386,0,0,1-.331,13.561,63.6,63.6,0,0,1-3.121,13.428c-9.267,27.079-29.174,38.072-53.617,51.591-10.073,5.542-20.9,11.534-32.013,19.285l-2.079,1.441-2.081-1.441c-11.11-7.751-21.937-13.743-31.962-19.285-24.494-13.518-44.352-24.512-53.619-51.591a66.942,66.942,0,0,1-3.167-13.428,80.081,80.081,0,0,1-.33-13.561,136.856,136.856,0,0,1,3.782-25.144c2.364-10.318,3.4-15.048-7-27.35L4.753,47.175l1.891-2.659L36.054,3.425,38.512,0l3.075,2.839C46.409,7.3,51.942,9.1,58.561,9.461Zm26.619,5.092c-10.355,1.894-19.149,3.291-26.949,2.885-6.9-.315-12.955-2.027-18.394-5.9L14.589,46.77c10.826,13.605,9.455,19.643,6.619,32.035a126.527,126.527,0,0,0-3.546,23.7,68.478,68.478,0,0,0,.282,12.166,56.307,56.307,0,0,0,2.742,11.716c8.275,24.151,26.952,34.469,49.978,47.219,9.6,5.273,19.861,10.95,30.545,18.2,10.686-7.254,20.994-12.932,30.544-18.2,23.028-12.75,41.75-23.068,50.026-47.219a59.381,59.381,0,0,0,2.743-11.716,68.3,68.3,0,0,0,.282-12.166,129.736,129.736,0,0,0-3.592-23.7c-2.791-12.392-4.161-18.43,6.667-32.035L162.63,11.534a33.065,33.065,0,0,1-17.446,5.857c-7.424.5-15.794-.676-25.534-2.388a107.6,107.6,0,0,0-17.306-2.027,84.473,84.473,0,0,0-17.164,1.577" data-name="Path 2" fill="#FFFFFF" id="Path_2" transform="translate(24.894)"></path> <path d="M48.715,7.288,14.387,63.88h68.37Z" data-name="Path 3" fill="#FFFFFF" fill-rule="evenodd" id="Path_3" transform="translate(75.354 38.172)"></path> <path d="M20.4,6.8,57.847,67.311,94.775,6.53Z" data-name="Path 4" fill="#FFFFFF" fill-rule="evenodd" id="Path_4" transform="translate(106.842 34.2)"></path> <path d="M14.433,17.235l35.65,58.3,36.031-58.3Z" data-name="Path 5" fill="#FFFFFF" fill-rule="evenodd" id="Path_5" transform="translate(75.596 90.272)"></path> <path d="M35.326,30.66a3.579,3.579,0,0,0-3.173,2.365l-.285,12.842c-7.9-4.6-13.9-7.929-23.119-8.291-5.485-.046-6.716.09-8.749.63l6.952,5.588,8.037,9.192L1.277,65.871l15.6.9,21.7,7.7C45.96,77.227,82.367,93.4,86.291,87.725L87.71,85.7l.709-4.912c4.87.407,22.838,2.7,36.078,2.7,13.288,0,32.106-2.343,36.976-2.794l-.144,5,1.418,2.027c3.925,5.678,40.284-10.5,47.708-13.246l22.176-7.7,15.6-.9L234.521,52.986l8.037-9.192,6.951-5.588c-2.034-.54-3.309-.676-8.746-.63-9.27.361-15.6,3.829-23.595,8.291l-.284-12.842a3.459,3.459,0,0,0-4.209-2.209L163.124,44.784a144.859,144.859,0,0,1-77.209,0L36.361,30.816A3.829,3.829,0,0,0,35.326,30.66ZM56.508,51.781l2.185.41,1.726,12.44,6.333-11,2.185.412L62.346,65.436a5.933,5.933,0,0,1-.982,1.374,1.544,1.544,0,0,1-1.395.439,1.641,1.641,0,0,1-1.166-.753,3.781,3.781,0,0,1-.459-1.539Zm136.634.266.386,1.926-1,.183a6.439,6.439,0,0,0-4.287,2.327,4.9,4.9,0,0,0-.936,2.5l-.018.279,7.133-1.32.385,1.907-7.215,1.329a4.9,4.9,0,0,0,2.166,2.72,5.563,5.563,0,0,0,1.946.691,5.008,5.008,0,0,0,1.67.017l2.294-.428.4,1.924-1.634.3a8.1,8.1,0,0,1-5.994-.971,6.841,6.841,0,0,1-3.14-4.583,6.5,6.5,0,0,1,1.166-5.4,7.45,7.45,0,0,1,4.847-3.061ZM72.018,54.209l2.267.385L71.67,68.747,69.4,68.362Zm4.557.949,2.194.332-1.533,9.256a2.962,2.962,0,0,0,.532,2.6,2.4,2.4,0,0,0,1,.674,8.06,8.06,0,0,0,1.258.262l2.717.412-.312,1.88-3.48-.524a4.841,4.841,0,0,1-2.68-1.269,4.077,4.077,0,0,1-1.221-2.047,6.3,6.3,0,0,1,.01-2.432Zm100.153.4a7.151,7.151,0,0,1,.939.059,9.27,9.27,0,0,1,3.965,1.592l-1.184,1.653a7.211,7.211,0,0,0-5.16-1.277,5.455,5.455,0,0,0-3.919,2.66,5.252,5.252,0,0,0-.606,3.752,5.313,5.313,0,0,0,2.6,3.622,5.731,5.731,0,0,0,7.408-1.093A4.086,4.086,0,0,0,181.88,63l-5.26.883-.349-1.9,7.518-1.269c.048.216.094.429.138.639a7.329,7.329,0,0,1-1.413,6.229,7.539,7.539,0,0,1-5.1,2.737A8.166,8.166,0,0,1,171.755,69a6.976,6.976,0,0,1-3.112-4.61,6.819,6.819,0,0,1,1.184-5.582,7.571,7.571,0,0,1,5.114-3.088A10.718,10.718,0,0,1,176.728,55.555ZM166.16,57.069l.248,1.95-1.019.123a6.484,6.484,0,0,0-4.444,2.03,4.93,4.93,0,0,0-1.12,2.431l-.045.281,7.206-.849.248,1.924-7.3.857a4.958,4.958,0,0,0,1.974,2.861,5.805,5.805,0,0,0,1.891.813,4.782,4.782,0,0,0,1.662.131l2.322-.271.247,1.943-1.643.191a8.105,8.105,0,0,1-5.911-1.374,6.789,6.789,0,0,1-2.8-4.785,6.537,6.537,0,0,1,1.56-5.3,7.538,7.538,0,0,1,5.058-2.738Zm-80.732.2,2.2.263-1.193,9.3a2.988,2.988,0,0,0,.642,2.59,2.326,2.326,0,0,0,1.019.63,7.629,7.629,0,0,0,1.267.218l2.727.324-.238,1.889-3.5-.411A4.887,4.887,0,0,1,85.64,70.9a4.021,4.021,0,0,1-1.3-2.013,6.122,6.122,0,0,1-.082-2.431Zm13.311,1.057c.176,0,.354,0,.535.016a5.256,5.256,0,0,1,3.837,1.8,6.527,6.527,0,0,1,1.221,4.821l-.605,8.31-2.213-.149.468-6.333-5.747-.385.138-1.959,5.673.376.1-1.339a2.913,2.913,0,0,0-.734-2.2,2.868,2.868,0,0,0-2.093-1.032,3.2,3.2,0,0,0-2.589.866,3.478,3.478,0,0,0-.863,2.188l-.689,9.394-2.139-.148.679-9.29a5.193,5.193,0,0,1,1.772-3.7A4.916,4.916,0,0,1,98.739,58.331Zm51.686.785.679,9.343a3.082,3.082,0,0,0,1.148,2.432,2.379,2.379,0,0,0,1.13.437,7.81,7.81,0,0,0,1.284-.017l2.754-.184.138,1.9-3.525.236a4.969,4.969,0,0,1-2.911-.656,4.184,4.184,0,0,1-1.662-1.741,6.113,6.113,0,0,1-.568-2.371l-.679-9.229Zm-31.831.464q.2,0,.395,0l1.753.062-.074,1.959-1.918-.07a5.583,5.583,0,0,0-3.993,1.4,4.98,4.98,0,0,0-1.772,3.726,4.671,4.671,0,0,0,1.524,3.762,5.8,5.8,0,0,0,3.92,1.513l1.863.07-.073,1.977-1.863-.07a7.927,7.927,0,0,1-5.518-2.239,6.559,6.559,0,0,1-2.056-5.117A6.706,6.706,0,0,1,113.39,61.5,8.011,8.011,0,0,1,118.595,59.58Zm11.325.606a7.834,7.834,0,0,1,5.563,2.231,6.973,6.973,0,0,1,2.368,5.232,6.811,6.811,0,0,1-2.35,5.2,8.3,8.3,0,0,1-11.153.017,7.033,7.033,0,0,1-.065-10.471A7.948,7.948,0,0,1,129.919,60.186Zm11.391.082.514,9.361a3.052,3.052,0,0,0,1.092,2.432,2.517,2.517,0,0,0,1.12.455,7.9,7.9,0,0,0,1.295.009l2.753-.14.1,1.907-3.525.175a4.889,4.889,0,0,1-2.891-.709,4.215,4.215,0,0,1-1.643-1.767,6.029,6.029,0,0,1-.523-2.371l-.514-9.247Zm-11.529,1.861a5.335,5.335,0,0,0-3.919,1.626,5.275,5.275,0,0,0-1.625,3.858,5.184,5.184,0,0,0,1.643,3.841,5.769,5.769,0,0,0,7.95.079,5.317,5.317,0,0,0,.091-7.758A5.674,5.674,0,0,0,129.781,62.129Z" data-name="Path 6" fill="#FFFFFF" fill-rule="evenodd" id="Path_6" transform="translate(0 160.585)"></path> <path d="M43.009,64.209,78.661,6.581,8.111,6.85Z" data-name="Path 7" fill="#FFFFFF" fill-rule="evenodd" id="Path_7" transform="translate(42.481 34.468)"></path></svg>